<svg width="214" height="154" viewBox="0 0 214 154" fill="none" xmlns="http://www.w3.org/2000/svg">
<rect width="214" height="154" fill="#1E1E1E"/>
<g id="Full / Morning Monitor">
<g clip-path="url(#clip0_1_477)">
<rect x="-107.04" y="-73.0402" width="1033" height="347" rx="4" fill="#C1E2FF"/>
<g id="Group 16">
<g id="Group 6">
<g id="full-lockup_color_svg" filter="url(#filter0_d_1_477)">
<g id="vpm news">
<path id="Vector" d="M58.762 27.6205H63.6028C63.7269 27.6205 63.8315 27.529 63.8445 27.4049L66.9541 2.36489C66.9737 2.22117 66.8561 2.09052 66.7124 2.09052H63.2827C63.1586 2.09052 63.0475 2.18851 63.0345 2.31263L61.9108 13.6012C61.8324 14.5811 61.7475 15.5676 61.6626 16.554C61.545 17.9586 61.4209 19.0887 61.3033 20.5325L61.2249 23.0672H61.153L61.0681 20.5325C60.9571 19.0953 60.8329 17.9586 60.7088 16.554C60.6239 15.5676 60.539 14.5877 60.4606 13.6012L59.3369 2.31263C59.3239 2.18851 59.2193 2.09052 59.0887 2.09052H55.659C55.5087 2.09052 55.3977 2.22117 55.4173 2.36489L58.5203 27.4049C58.5334 27.529 58.6379 27.6205 58.762 27.6205Z" fill="white"/>
<path id="Vector_2" d="M93.3921 2.09705H88.0679C87.9569 2.09705 87.8654 2.18197 87.8523 2.29303L86.6568 12.6474C86.5327 13.5359 86.2975 15.6852 86.1538 17.9586L86.082 21.0812H86.0101L85.9382 17.9586C85.8011 15.6786 85.5593 13.5359 85.4352 12.6474L84.2397 2.29303C84.2267 2.18197 84.1352 2.09705 84.0241 2.09705H78.7C78.5824 2.09705 78.4844 2.19504 78.4844 2.31263V27.4049C78.4844 27.5225 78.5824 27.6205 78.7 27.6205H81.7246C81.8422 27.6205 81.9402 27.5225 81.9402 27.4049V11.7851C81.9402 11.661 81.9402 11.5303 81.9402 11.3997L81.7638 6.44785H81.8683C81.8683 6.44785 82.5608 13.2746 82.6915 14.4635L84.3051 27.418C84.3181 27.529 84.4096 27.6139 84.5206 27.6139H87.5584C87.6694 27.6139 87.7609 27.5356 87.7739 27.4245L89.3875 14.4701C89.5182 13.2811 90.2107 6.44785 90.2107 6.44785H90.3152L90.1388 11.4062C90.1388 11.5369 90.1388 11.661 90.1388 11.7916V27.4049C90.1388 27.5225 90.2368 27.6205 90.3544 27.6205H93.379C93.4966 27.6205 93.5946 27.5225 93.5946 27.4049V2.31263C93.5946 2.19504 93.4966 2.09705 93.379 2.09705H93.3921Z" fill="white"/>
<path id="Vector_3" d="M67.8229 27.6205H71.1873C71.3441 27.6205 71.4682 27.4964 71.4682 27.3396V21.1335H71.5727C72.0431 21.1335 72.9446 21.1073 72.8858 21.1073C74.127 21.0943 75.12 20.7415 75.8582 20.1144C76.9361 19.3108 77.4195 18.0108 77.4195 16.1033V7.12073C77.4195 5.21317 76.9361 3.91315 75.8582 3.10962C75.12 2.48248 74.127 2.16238 72.8858 2.14931C72.4807 2.11011 72.0431 2.09052 71.5727 2.09052H67.8229C67.6661 2.09052 67.542 2.21464 67.542 2.37142V27.3396C67.542 27.4964 67.6661 27.6205 67.8229 27.6205ZM71.4682 5.31116C71.6903 5.31116 71.8536 5.32422 71.8928 5.32422C72.3501 5.33729 72.7486 5.37649 73.036 5.53327C73.4019 5.85338 73.4868 6.50012 73.4868 7.61722V15.6068C73.4868 16.7239 73.4019 17.3706 73.036 17.6907C72.7486 17.8475 72.3436 17.8867 71.8928 17.8998C71.8536 17.8998 71.6838 17.9063 71.4682 17.9128V5.31116Z" fill="white"/>
<path id="Vector_4" d="M138.194 2.09705H135.208C135.084 2.09705 134.973 2.19504 134.96 2.31916C134.96 2.31916 134.111 15.5741 134.033 16.5605C133.915 17.9651 133.791 19.0952 133.673 20.539L133.588 23.0737H133.517L133.438 20.539C133.327 19.1018 133.203 17.9651 133.079 16.5605C132.994 15.5741 131.923 2.31916 131.923 2.31916C131.909 2.19504 131.805 2.09705 131.674 2.09705H128.525C128.401 2.09705 128.29 2.19504 128.277 2.31916C128.277 2.31916 127.206 15.5741 127.121 16.5605C127.003 17.9651 126.879 19.0952 126.762 20.539L126.683 23.0737H126.611L126.526 20.539C126.415 19.1018 126.291 17.9651 126.167 16.5605C126.082 15.5741 125.233 2.31916 125.233 2.31916C125.22 2.19504 125.115 2.09705 124.985 2.09705H121.777C121.627 2.09705 121.516 2.2277 121.535 2.37142L123.724 27.4114C123.737 27.5356 123.842 27.627 123.966 27.627H128.473C128.597 27.627 128.702 27.5356 128.715 27.4114L129.897 13.451L130.035 8.79964H130.119L130.257 13.451L131.439 27.4114C131.452 27.5356 131.557 27.627 131.681 27.627H135.966C136.09 27.627 136.195 27.5356 136.208 27.4114L138.396 2.37142C138.416 2.2277 138.298 2.09705 138.155 2.09705H138.194Z" fill="white"/>
<path id="Vector_5" d="M120.562 2.09705H115.329H112.566C112.409 2.09705 112.285 2.22117 112.285 2.37795V27.3461C112.285 27.5029 112.409 27.627 112.566 27.627H120.562C120.718 27.627 120.843 27.5029 120.843 27.3461V24.6873C120.843 24.5305 120.718 24.4064 120.562 24.4064H116.211V16.2012H119.562C119.719 16.2012 119.843 16.0771 119.843 15.9203V13.2615C119.843 13.1047 119.719 12.9806 119.562 12.9806H116.211V5.32422H120.562C120.718 5.32422 120.843 5.2001 120.843 5.04331V2.37795C120.843 2.22117 120.718 2.09705 120.562 2.09705Z" fill="white"/>
<path id="Vector_6" d="M142.989 9.87099V6.0624C142.989 5.48099 143.341 5.14129 144.047 5.14129C144.752 5.14129 145.105 5.48099 145.105 6.0624V10.9228C145.105 11.0796 145.229 11.2037 145.386 11.2037H148.398C148.554 11.2037 148.679 11.0796 148.679 10.9228V5.92522C148.679 3.4885 147.372 1.95984 144.04 1.95984C140.709 1.95984 139.291 3.4885 139.291 5.92522V10.2956C139.291 15.4826 145.21 15.8223 145.21 19.7485V23.7792C145.21 24.3606 144.746 24.7003 144.04 24.7003C143.335 24.7003 142.871 24.3606 142.871 23.7792V18.2656C142.871 18.1088 142.747 17.9847 142.59 17.9847H139.578C139.422 17.9847 139.298 18.1088 139.298 18.2656V23.9164C139.298 26.3531 140.715 27.8818 144.047 27.8818C147.379 27.8818 148.907 26.3531 148.907 23.9164V19.3173C148.907 13.8364 142.989 13.2615 142.989 9.86446V9.87099Z" fill="white"/>
<path id="Vector_7" d="M110.39 2.09705H107.477C107.359 2.09705 107.261 2.19504 107.261 2.31263V15.6982C107.261 15.8223 107.261 15.953 107.261 16.0837L107.548 21.0355H107.444L104.276 2.2865C104.263 2.17544 104.171 2.09052 104.06 2.09052H99.6243C99.5067 2.09052 99.4087 2.18851 99.4087 2.3061V27.3984C99.4087 27.516 99.5067 27.614 99.6243 27.614H102.538C102.655 27.614 102.753 27.516 102.753 27.3984V14.0128C102.753 13.8887 102.753 13.758 102.753 13.6273L102.466 8.67552H102.571L105.739 27.4245C105.752 27.5356 105.843 27.6205 105.955 27.6205H110.39C110.508 27.6205 110.606 27.5225 110.606 27.4049V2.31263C110.606 2.19504 110.508 2.09705 110.39 2.09705Z" fill="white"/>
</g>
<g id="morning">
<path id="Vector_8" d="M17.9717 49.8645H22.4009L29.012 82.1951C29.2929 83.6519 29.515 84.8866 29.6261 86.4544H29.7372C29.8482 84.8866 30.0769 83.6519 30.41 82.1951L37.0212 49.8645H41.3916V89.6489H38.8177V59.9511C38.8177 57.9912 38.8177 54.5158 38.9287 52.556H38.6478C38.4257 54.346 38.2559 55.4108 37.8051 57.9912L31.194 89.6489H28.1693L21.5582 57.9912C21.1662 55.4173 20.8853 53.3987 20.7154 52.556H20.4933C20.5521 54.5158 20.6044 57.9912 20.6044 59.9511V89.6489H17.9717V49.8645Z" fill="#DEE22B" stroke="white" stroke-width="0.163319" stroke-miterlimit="10"/>
<path id="Vector_9" d="M49.9102 79.5623V59.8988C49.9102 52.8369 53.2157 48.9172 59.154 48.9172C65.0923 48.9172 68.3978 52.8369 68.3978 59.8988V79.5623C68.3978 86.6765 65.0923 90.6027 59.154 90.6027C53.2157 90.6027 49.9102 86.6242 49.9102 79.5623ZM65.6018 79.7322V59.7877C65.6018 54.4635 63.1912 51.269 59.1605 51.269C55.1298 51.269 52.7192 54.4635 52.7192 59.7877V79.7322C52.7192 84.9976 55.071 88.2509 59.1605 88.2509C63.25 88.2509 65.6018 85.0564 65.6018 79.7322Z" fill="#DEE22B" stroke="white" stroke-width="0.163319" stroke-miterlimit="10"/>
<path id="Vector_10" d="M84.6516 71.7165H79.6671V89.6489H76.9233V49.8645H83.8154C89.8124 49.8645 92.6673 52.6148 92.6673 59.2194V62.0807C92.6673 66.9542 90.8773 70.2009 87.2908 71.2658L93.7909 89.6424H90.8185L84.6516 71.71V71.7165ZM84.2074 69.5346C87.4607 69.5346 89.8647 67.5748 89.8647 62.0807V59.3892C89.8647 53.7907 87.6762 52.1052 83.6455 52.1052H79.6671V69.5346H84.2074Z" fill="#DEE22B" stroke="white" stroke-width="0.163319" stroke-miterlimit="10"/>
<path id="Vector_11" d="M100.964 49.8645H104.099L114.97 79.4513C115.643 81.4111 116.035 83.1488 116.538 85.5594H116.649C116.368 82.8679 116.257 80.8558 116.257 76.9297V49.8645H118.889V89.6489H115.917L105.047 59.6702C104.204 57.4294 103.812 55.9138 103.368 53.6208H103.198C103.479 56.0314 103.59 57.6515 103.59 61.238V89.6489H100.957V49.8645H100.964Z" fill="#DEE22B" stroke="white" stroke-width="0.163319" stroke-miterlimit="10"/>
<path id="Vector_12" d="M128.584 89.6489V49.8645H131.328V89.6489H128.584Z" fill="#DEE22B" stroke="white" stroke-width="0.163319" stroke-miterlimit="10"/>
<path id="Vector_13" d="M142.244 49.8645H145.38L156.25 79.4513C156.923 81.4111 157.315 83.1488 157.818 85.5594H157.929C157.648 82.8679 157.537 80.8558 157.537 76.9297V49.8645H160.17V89.6489H157.197L146.327 59.6702C145.484 57.4294 145.092 55.9138 144.648 53.6208H144.478C144.759 56.0314 144.87 57.6515 144.87 61.238V89.6489H142.237V49.8645H142.244Z" fill="#DEE22B" stroke="white" stroke-width="0.163319" stroke-miterlimit="10"/>
<path id="Vector_14" d="M168.748 79.3402V60.4541C168.748 53.1113 171.831 48.9107 177.769 48.9107C183.708 48.9107 186.118 52.7193 186.118 58.6053V62.133L183.374 62.5772L183.316 58.5988C183.257 54.0585 181.526 51.256 177.658 51.256C173.791 51.256 171.55 54.5615 171.55 60.2189V79.3272C171.55 84.7101 173.621 88.2378 177.436 88.2378C182.087 88.2378 183.714 83.3644 183.714 77.3673V71.5401H176.6V69.1883H186.347V89.6424H184.328L184.047 83.593C183.041 88.1856 180.683 90.5962 176.985 90.5962C171.72 90.5962 168.748 86.278 168.748 79.3337V79.3402Z" fill="#DEE22B" stroke="white" stroke-width="0.163319" stroke-miterlimit="10"/>
</g>
<g id="monitor">
<path id="Vector_15" d="M15.424 105.341H24.9226L27.9865 124.188C28.2935 126.128 28.5483 128.12 28.6006 129.499H28.8031C28.8031 128.12 29.1101 126.128 29.3649 124.188L32.3765 105.341H41.9274V141.604H35.7996V123.371C35.7996 120.457 35.7996 116.42 35.9499 113.513H35.7474C35.5449 115.251 35.3881 116.577 35.0353 118.876L31.2071 141.604H26.0985L22.2181 118.876C21.911 116.577 21.604 114.584 21.5517 113.513H21.297C21.4472 116.42 21.4472 120.457 21.4472 123.371V141.604H15.4175V105.341H15.424Z" fill="white"/>
<path id="Vector_16" d="M48.0093 130.982V115.963C48.0093 108.555 52.0988 104.472 58.9908 104.472C65.8829 104.472 70.0246 108.555 70.0246 115.963V130.982C70.0246 138.39 65.9417 142.473 58.9908 142.473C52.04 142.473 48.0093 138.39 48.0093 130.982ZM62.721 131.844V115.087C62.721 111.821 61.3949 110.031 58.9908 110.031C56.5868 110.031 55.3129 111.821 55.3129 115.087V131.844C55.3129 135.117 56.639 136.9 58.9908 136.9C61.3426 136.9 62.721 135.11 62.721 131.844Z" fill="white"/>
<path id="Vector_17" d="M76.1064 105.341H83.7171L89.7925 122.959C90.3544 124.749 90.8639 126.585 91.2755 128.375H91.38C91.2298 125.716 91.1252 123.064 91.1252 120.353V105.334H97.3575V141.597H90.5112L83.8739 122.496C83.1618 120.346 82.698 118.615 82.293 116.773H82.1427C82.293 119.125 82.3975 121.372 82.3975 123.822V141.597H76.113V105.334L76.1064 105.341Z" fill="white"/>
<path id="Vector_18" d="M104.511 141.604V105.341H111.612V141.604H104.511Z" fill="white"/>
<path id="Vector_19" d="M136.946 111.364H130.047V141.604H122.998V111.364H116.106V105.341H136.946V111.364Z" fill="white"/>
<path id="Vector_20" d="M139.755 130.982V115.963C139.755 108.555 143.845 104.472 150.737 104.472C157.629 104.472 161.771 108.555 161.771 115.963V130.982C161.771 138.39 157.688 142.473 150.737 142.473C143.786 142.473 139.755 138.39 139.755 130.982ZM154.467 131.844V115.087C154.467 111.821 153.141 110.031 150.737 110.031C148.333 110.031 147.059 111.821 147.059 115.087V131.844C147.059 135.117 148.385 136.9 150.737 136.9C153.089 136.9 154.467 135.11 154.467 131.844Z" fill="white"/>
<path id="Vector_21" d="M177.508 126.84H174.954V141.604H167.853V105.341H177.508C185.066 105.341 188.032 108.966 188.084 115.042V116.779C188.084 121.071 186.504 123.828 183.792 125.154L188.901 141.604H181.493L177.508 126.84ZM177.044 122.293C179.801 122.293 180.774 120.66 180.774 117.132V114.833C180.774 111.514 179.755 110.234 177.044 110.234H174.947V122.286H177.044V122.293Z" fill="white"/>
</g>
<path id="WINGS" d="M199.112 91.7263L201.96 89.0478H111.592C108.973 87.0619 105.739 85.8795 102.244 85.8795C98.3637 85.8795 94.8099 87.3297 92.0531 89.7338L91.3279 89.0478H1.95996L6.25851 91.7263H90.1194C89.3224 92.6996 88.643 93.7775 88.0811 94.9273H9.14598L13.4445 97.6057H87.0424C86.853 98.259 86.6897 98.9188 86.5721 99.5982H117.897C117.786 98.9188 117.616 98.2525 117.426 97.6057H195.186L198.034 94.9273H116.394C115.832 93.7775 115.153 92.6996 114.356 91.7263H199.112Z" fill="#DEE22B"/>
</g>
</g>
</g>
</g>
</g>
<defs>
<filter id="filter0_d_1_477" x="0.000137329" y="1.52588e-05" width="213.065" height="153.578" filterUnits="userSpaceOnUse" color-interpolation-filters="sRGB">
<feFlood flood-opacity="0" result="BackgroundImageFix"/>
<feColorMatrix in="SourceAlpha" type="matrix" values="0 0 0 0 0 0 0 0 0 0 0 0 0 0 0 0 0 0 127 0" result="hardAlpha"/>
<feOffset dx="4.57292" dy="4.57292"/>
<feGaussianBlur stdDeviation="3.26637"/>
<feColorMatrix type="matrix" values="0 0 0 0 0 0 0 0 0 0 0 0 0 0 0 0 0 0 0.02 0"/>
<feBlend mode="normal" in2="BackgroundImageFix" result="effect1_dropShadow_1_477"/>
<feBlend mode="normal" in="SourceGraphic" in2="effect1_dropShadow_1_477" result="shape"/>
</filter>
<clipPath id="clip0_1_477">
<rect x="-107.04" y="-73.0402" width="1033" height="347" rx="4" fill="white"/>
</clipPath>
</defs>
</svg>
